<svg width="1200" height="760" viewBox="0 0 1200 760" fill="none" xmlns="http://www.w3.org/2000/svg">
  <rect width="1200" height="760" fill="#030712"/>
  <text x="40" y="56" fill="#E5E7EB" font-family="Inter, Arial, sans-serif" font-size="28" font-weight="700">PyTaskForge — Dashboard View</text>
  <text x="40" y="88" fill="#9CA3AF" font-family="Inter, Arial, sans-serif" font-size="16">Illustrative preview based on frontend/src/views/DashboardView.vue</text>
  <rect x="0" y="110" width="1200" height="72" fill="#111827" stroke="#1F2937"/>
  <text x="64" y="154" fill="#F9FAFB" font-family="Inter, Arial, sans-serif" font-size="28" font-weight="700">⚙️ PyTaskForge</text>
  <text x="1020" y="154" fill="#9CA3AF" font-family="Inter, Arial, sans-serif" font-size="18">admin · Logout</text>
  <rect x="70" y="210" width="1060" height="56" rx="16" fill="#1F2937" stroke="#374151"/>
  <text x="96" y="245" fill="#F9FAFB" font-family="Inter, Arial, sans-serif" font-size="26" font-weight="700">Jobs</text>
  <rect x="956" y="222" width="150" height="34" rx="10" fill="#2563EB"/>
  <text x="989" y="244" fill="#FFFFFF" font-family="Inter, Arial, sans-serif" font-size="16" font-weight="700">New Job</text>
  <rect x="70" y="298" width="320" height="180" rx="20" fill="#111827" stroke="#374151"/>
  <rect x="440" y="298" width="320" height="180" rx="20" fill="#111827" stroke="#374151"/>
  <rect x="810" y="298" width="320" height="180" rx="20" fill="#111827" stroke="#374151"/>
  <text x="96" y="340" fill="#F9FAFB" font-family="Inter, Arial, sans-serif" font-size="22" font-weight="700">Nightly ETL</text>
  <text x="96" y="370" fill="#9CA3AF" font-family="Inter, Arial, sans-serif" font-size="15">interval · venv · active</text>
  <rect x="96" y="402" width="82" height="28" rx="14" fill="#052E16"/>
  <text x="117" y="421" fill="#86EFAC" font-family="Inter, Arial, sans-serif" font-size="14">active</text>
  <text x="468" y="340" fill="#F9FAFB" font-family="Inter, Arial, sans-serif" font-size="22" font-weight="700">Health Check</text>
  <text x="468" y="370" fill="#9CA3AF" font-family="Inter, Arial, sans-serif" font-size="15">cron · docker · active</text>
  <rect x="468" y="402" width="86" height="28" rx="14" fill="#1E3A8A"/>
  <text x="489" y="421" fill="#BFDBFE" font-family="Inter, Arial, sans-serif" font-size="14">docker</text>
  <text x="838" y="340" fill="#F9FAFB" font-family="Inter, Arial, sans-serif" font-size="22" font-weight="700">Report Job</text>
  <text x="838" y="370" fill="#9CA3AF" font-family="Inter, Arial, sans-serif" font-size="15">date · venv · paused</text>
  <rect x="838" y="402" width="88" height="28" rx="14" fill="#3F3F46"/>
  <text x="860" y="421" fill="#E4E4E7" font-family="Inter, Arial, sans-serif" font-size="14">paused</text>
  <rect x="70" y="516" width="1060" height="170" rx="20" fill="#0F172A" stroke="#1F2937"/>
  <text x="96" y="560" fill="#F9FAFB" font-family="Inter, Arial, sans-serif" font-size="24" font-weight="700">Operational Summary</text>
  <text x="96" y="598" fill="#9CA3AF" font-family="Inter, Arial, sans-serif" font-size="18">Dashboard routes currently focus on job listing, navigation to create/edit, and access to live logs.</text>
  <text x="96" y="636" fill="#9CA3AF" font-family="Inter, Arial, sans-serif" font-size="18">Dedicated frontend pages for secrets, alerts, analytics, and pipelines are not yet routed.</text>
</svg>

